<svg xmlns="http://www.w3.org/2000/svg" width="87.52" height="65.64" viewBox="0 0 87.52 65.64">
  <path d="M80.227,3h-54.7a6.864,6.864,0,0,0-5.8,3.209L0,35.82,19.728,65.394a6.9,6.9,0,0,0,5.8,3.246h54.7a7.315,7.315,0,0,0,7.293-7.293V10.293A7.315,7.315,0,0,0,80.227,3Zm0,58.347H25.782L8.752,35.82,25.745,10.293H80.227ZM37.962,54.053,51.053,40.962,64.145,54.053l5.142-5.142L56.2,35.82,69.287,22.728l-5.142-5.142L51.053,30.678,37.962,17.587,32.82,22.728,45.912,35.82,32.82,48.912Z" transform="translate(0 -3)" fill="currentColor"/>
</svg>
