<svg xmlns="http://www.w3.org/2000/svg" width="133" height="133" viewBox="0 0 133 133">
  <path d="M0,0H133V133H0Z" fill="none"/>
  <path d="M50.167,101.5a11.173,11.173,0,1,0,11.542,11.167A11.392,11.392,0,0,0,50.167,101.5ZM15.542,1A11.392,11.392,0,0,0,4,12.167,11.392,11.392,0,0,0,15.542,23.333,11.392,11.392,0,0,0,27.083,12.167,11.392,11.392,0,0,0,15.542,1Zm0,33.5a11.173,11.173,0,1,0,0,22.333,11.173,11.173,0,1,0,0-22.333Zm0,33.5a11.173,11.173,0,1,0,0,22.333,11.173,11.173,0,1,0,0-22.333Zm69.25-44.667A11.392,11.392,0,0,0,96.333,12.167a11.548,11.548,0,0,0-23.083,0A11.392,11.392,0,0,0,84.792,23.333ZM50.167,68A11.173,11.173,0,1,0,61.708,79.167,11.392,11.392,0,0,0,50.167,68Zm34.625,0A11.173,11.173,0,1,0,96.333,79.167,11.392,11.392,0,0,0,84.792,68Zm0-33.5A11.173,11.173,0,1,0,96.333,45.667,11.392,11.392,0,0,0,84.792,34.5Zm-34.625,0A11.173,11.173,0,1,0,61.708,45.667,11.392,11.392,0,0,0,50.167,34.5Zm0-33.5A11.392,11.392,0,0,0,38.625,12.167a11.548,11.548,0,0,0,23.083,0A11.392,11.392,0,0,0,50.167,1Z" transform="translate(16.333 4.083)" fill="#fff"/>
</svg>
