<svg xmlns="http://www.w3.org/2000/svg" width="64" height="64" viewBox="0 0 64 64">
  <path d="M51,14.413V8.333A5.349,5.349,0,0,0,45.667,3H8.333A5.332,5.332,0,0,0,3,8.333V45.667A5.332,5.332,0,0,0,8.333,51H45.667A5.349,5.349,0,0,0,51,45.667v-6.08A5.335,5.335,0,0,0,53.667,35V19A5.335,5.335,0,0,0,51,14.413ZM48.333,19V35H29.667V19Zm-40,26.667V8.333H45.667v5.333h-16A5.349,5.349,0,0,0,24.333,19V35a5.349,5.349,0,0,0,5.333,5.333h16v5.333Z" transform="translate(5 5)" fill="#fff"/>
  <circle cx="4" cy="4" r="4" transform="translate(38.667 28)" fill="#fff"/>
</svg>
