<svg xmlns="http://www.w3.org/2000/svg" width="271.72" height="271.72" viewBox="0 0 271.72 271.72">
  <path d="M87.252,9H19.322A11.355,11.355,0,0,0,8,20.322v135.86A11.355,11.355,0,0,0,19.322,167.5h67.93a11.355,11.355,0,0,0,11.322-11.322V20.322A11.355,11.355,0,0,0,87.252,9ZM75.93,144.86H30.643V31.643H75.93Z" transform="translate(82.573 92.895)" fill="currentColor"/>
  <ellipse cx="11" cy="11.5" rx="11" ry="11.5" transform="translate(124.687 136.687)" fill="currentColor"/>
  <path d="M36.26,68.5,52.224,84.46a56.853,56.853,0,0,1,80.157,0L148.345,68.5a79.265,79.265,0,0,0-112.084,0ZM92.3,0A124.147,124.147,0,0,0,4.22,36.456L20.184,52.419a101.952,101.952,0,0,1,144.125.113l15.964-15.964A123.313,123.313,0,0,0,92.3,0Z" transform="translate(43.557)" fill="currentColor"/>
</svg>
