<svg xmlns="http://www.w3.org/2000/svg" width="80.314" height="65.638" viewBox="0 0 80.314 65.638">
  <path d="M74.012,3.01H8.3a7.323,7.323,0,0,0-7.3,7.3V24.877H8.3V10.238H74.012V61.456H8.3V46.781H1V61.42a7.26,7.26,0,0,0,7.3,7.228H74.012a7.26,7.26,0,0,0,7.3-7.228V10.311a7.3,7.3,0,0,0-7.3-7.3ZM37.506,50.432l14.6-14.6-14.6-14.6V32.178H1v7.3H37.506ZM74.012,3.01H8.3a7.323,7.323,0,0,0-7.3,7.3V24.877H8.3V10.238H74.012V61.456H8.3V46.781H1V61.42a7.26,7.26,0,0,0,7.3,7.228H74.012a7.26,7.26,0,0,0,7.3-7.228V10.311a7.3,7.3,0,0,0-7.3-7.3ZM37.506,50.432l14.6-14.6-14.6-14.6V32.178H1v7.3H37.506Z" transform="translate(-1 -3.01)" fill="currentColor"/>
</svg>
