<svg xmlns="http://www.w3.org/2000/svg" width="136.5" height="136.5" viewBox="0 0 136.5 136.5">
  <path d="M33.76,24.949,23.522,14.769,15.5,22.788,25.684,32.969ZM1,57.141H18.062V68.516H1ZM57.875.55H69.25V17.328H57.875ZM103.6,14.74l8.008,8L101.43,32.923l-8-8.008ZM93.365,100.707l10.181,10.237,8.019-8.019L101.328,92.744Zm15.7-43.566h17.063V68.516H109.062ZM63.563,28.7A34.125,34.125,0,1,0,97.687,62.828,34.152,34.152,0,0,0,63.563,28.7Zm0,56.875a22.75,22.75,0,1,1,22.75-22.75A22.744,22.744,0,0,1,63.563,85.578Zm-5.688,22.75H69.25v16.778H57.875ZM15.5,102.868l8.019,8.019L33.7,100.65l-8.019-8.019Z" transform="translate(4.688 2.578)" fill="currentColor"/>
</svg>
