<svg xmlns="http://www.w3.org/2000/svg" width="84" height="84" viewBox="0 0 84 84">
  <path d="M62,2H22a8.024,8.024,0,0,0-8,8v8a8.024,8.024,0,0,0,8,8H62a8.024,8.024,0,0,0,8-8V10A8.024,8.024,0,0,0,62,2Zm0,16H22V10H62ZM74,82H10a8.024,8.024,0,0,1-8-8V70H82v4A8.024,8.024,0,0,1,74,82ZM68.12,34.76A8.034,8.034,0,0,0,60.8,30H23.2a8.034,8.034,0,0,0-7.32,4.76L2,66H82ZM32,58H28a2,2,0,0,1,0-4h4a2,2,0,0,1,0,4Zm0-8H28a2,2,0,0,1,0-4h4a2,2,0,0,1,0,4Zm0-8H28a2,2,0,0,1,0-4h4a2,2,0,0,1,0,4ZM44,58H40a2,2,0,0,1,0-4h4a2,2,0,0,1,0,4Zm0-8H40a2,2,0,0,1,0-4h4a2,2,0,0,1,0,4Zm0-8H40a2,2,0,0,1,0-4h4a2,2,0,0,1,0,4ZM56,58H52a2,2,0,0,1,0-4h4a2,2,0,0,1,0,4Zm0-8H52a2,2,0,0,1,0-4h4a2,2,0,0,1,0,4Zm0-8H52a2,2,0,0,1,0-4h4a2,2,0,0,1,0,4Z" fill="#26436b"/>
</svg>
