<svg xmlns="http://www.w3.org/2000/svg" width="65.989" height="85.156" viewBox="0 0 65.989 85.156">
  <path d="M44.538,76.347C40.108,65.171,30.8,55.056,42.512,34.682c4.823-8.391,12.189-13.925,19.8-12.051,7.61-1.873,14.977,3.661,19.8,12.051,11.709,20.374,2.4,30.489-2.026,41.665l-17.772.044-17.773-.044Z" transform="translate(-29.28 -22.265)" fill="#1f0951"/>
  <path d="M91.437,130.141a20.46,20.46,0,0,1-2.651.33c-8.525.5-19.28.961-30.219.961s-21.695-.457-30.219-.961a20.385,20.385,0,0,1-2.647-.329c.516-2.1,1-4.315,1.439-6.277a43.409,43.409,0,0,1,1.529-6.036c3.791-6.121,8.5-8.3,12.634-10.212,5.17-2.391,9.451-4.371,9.948-13.123,0,0,3.938,3.017,7.17,2.988s7.464-3.187,7.464-3.187c.5,8.775,4.794,10.8,9.976,13.253,4.131,1.951,8.825,4.169,12.61,10.281A43.377,43.377,0,0,1,90,123.86C90.432,125.822,90.921,128.035,91.437,130.141Z" transform="translate(-25.571 -46.275)" fill="#ffd7a3" fill-rule="evenodd"/>
  <path d="M78.768,96.523c-.106-.691-.184-1.43-.229-2.227,0,0-4.232,3.158-7.464,3.187s-7.17-2.988-7.17-2.988c-.046.811-.126,1.561-.235,2.262.083.065.165.132.249.2v.011c.249.217,4.032,3.47,7.156,3.436,3.124.033,6.907-3.22,7.156-3.436v-.011c.183-.14.362-.285.537-.43Z" transform="translate(-38.228 -46.276)" fill="#f0c290"/>
  <path d="M60.114,79.021c.249.188,4.032,3.006,7.156,2.977,3.124.028,6.907-2.79,7.156-2.977,4.722-2.753,8.6-10.87,7.723-19.668-.716-7.206-8.512,3.36-13.941-11.508-7.684,16.1-14.983,6.575-15.815,12.676-.917,6.722,2.856,15.179,7.722,18.5Z" transform="translate(-34.422 -30.792)" fill="#ffe1b2"/>
  <path d="M91.5,135.665a20.464,20.464,0,0,1-2.775.355c-8.525.5-19.28.961-30.219.961s-21.695-.457-30.219-.961a20.485,20.485,0,0,1-2.776-.355c.64-3.055,1.243-6.667,1.756-9.744a50.243,50.243,0,0,1,1.341-6.833c2.119-3.407,6.5-4.615,10.572-5.741A29.64,29.64,0,0,0,45,111.326v0c8.624,27.664,19.412,25.873,26.65-.387a30.146,30.146,0,0,0,6,2.036c4.469,1.2,9.33,2.515,10.756,6.111.165.415.538,2.584,1.03,5.446C90.006,127.864,90.741,132.131,91.5,135.665ZM45,111.325h0Zm0,0h0Z" transform="translate(-25.506 -51.824)" fill="#304ffd" fill-rule="evenodd"/>
  <path d="M54.219,107.6c-.3,8.17,1.087,19.745,10.254,22.7-8.631.361-14.231-12.075-20.611-15.331L54.219,107.6h0Z" transform="translate(-31.625 -50.711)" fill="#fff"/>
  <path d="M85.547,107.6c.317,8.17-1.141,19.745-10.768,22.7,9.063.361,14.944-12.075,21.643-15.331L85.547,107.6Z" transform="translate(-41.93 -50.711)" fill="#fff"/>
</svg>
