<svg xmlns="http://www.w3.org/2000/svg" width="49.954" height="84.062" viewBox="0 0 49.954 84.062">
  <path d="M85.193,44.292V59.519c0,.22,0,.44-.01.66,0,.18-.01.356-.02.536,0,.16-.015.32-.03.481,0,.115-.015.23-.025.345-.005.071-.011.135-.021.205-.01.125-.02.255-.04.38-.02.24-.05.476-.085.716,0,.06-.015.12-.025.18-.015.12-.035.241-.055.36V63.4c-.029.175-.06.345-.09.521-.045.24-.09.481-.14.716-.005.01-.005.02-.01.031a.742.742,0,0,1-.02.105c0,.01,0,.02-.01.03-.025.131-.055.255-.085.38a1,1,0,0,1-.04.166c-.015.09-.041.18-.06.27a1.475,1.475,0,0,1-.045.155c-.01.045-.025.091-.035.13-.105.411-.226.811-.351,1.212-.061.19-.121.375-.185.566,0,.02-.015.04-.02.06l-.18.511c-.02.05-.04.1-.06.155-.061.16-.12.32-.185.481-.075.195-.155.385-.235.576-.071.17-.145.34-.221.51-.009.031-.025.055-.035.085-.085.18-.165.36-.251.536s-.175.371-.27.556c-.181.365-.376.731-.571,1.086l-.271.481a29.424,29.424,0,0,1-2.559,3.725q-.188.248-.391.481c-.185.225-.375.445-.566.661-.17.191-.34.381-.516.566q-.721.774-1.472,1.467c-.1.1-.205.191-.31.285-.17.155-.34.305-.516.451-.135.121-.275.235-.416.351-.36.3-.721.581-1.087.846-.15.115-.305.225-.461.331-.25.18-.506.351-.761.517-.14.095-.285.185-.431.27-.511.315-1.027.606-1.538.856-.125.065-.25.126-.376.186s-.255.12-.391.18c-.165.075-.331.145-.5.211a1.673,1.673,0,0,1-.2.075c-.2.081-.4.155-.591.22-.245.091-.5.166-.741.235-.17.05-.345.1-.516.135a.064.064,0,0,1-.035.011c-.17.04-.34.08-.511.111a1.368,1.368,0,0,1-.135.025c-.14.025-.281.05-.421.065-.2.03-.4.055-.6.065a1.414,1.414,0,0,1-.2.015c-.16.01-.32.015-.476.015h-.015q-.232,0-.466-.015a1.1,1.1,0,0,1-.18-.015c-.14-.005-.285-.02-.436-.04a.517.517,0,0,1-.095-.011c-.185-.025-.371-.055-.561-.09-.16-.025-.32-.06-.486-.1a14.457,14.457,0,0,1-2.629-.886,19.178,19.178,0,0,1-2.3-1.212c-.385-.235-.771-.485-1.152-.751-.19-.135-.38-.271-.571-.411q-.894-.654-1.767-1.422c-.16-.145-.32-.29-.481-.44s-.32-.3-.476-.441q-.586-.563-1.142-1.171c-.145-.155-.29-.315-.436-.481-.4-.45-.791-.916-1.162-1.4-.145-.175-.281-.355-.415-.536q-.759-1.006-1.437-2.1c-.12-.195-.241-.4-.356-.591-.14-.235-.275-.476-.411-.716a27.3,27.3,0,0,1-1.362-2.8c-.06-.14-.12-.281-.17-.42-.08-.18-.15-.366-.215-.546q-.151-.4-.285-.8c-.09-.265-.175-.536-.261-.806s-.155-.521-.225-.786c-.08-.281-.155-.566-.221-.856,0-.03-.015-.06-.02-.091q-.143-.6-.255-1.217c-.1-.541-.18-1.091-.24-1.648-.025-.175-.04-.351-.055-.526s-.035-.366-.045-.551c-.025-.336-.04-.676-.05-1.017,0-.22-.01-.44-.01-.66V44.292a20.387,20.387,0,0,1,20.37-20.385h.02a20.613,20.613,0,0,1,4.516.5,20.393,20.393,0,0,1,15.863,19.7C85.193,44.171,85.193,44.231,85.193,44.292Z" transform="translate(-39.829 -23.906)" fill="#ffe1b2"/>
  <path d="M87.49,134.464c-7.5.377-16.178.673-24.978.673s-17.479-.3-24.975-.673q.176-.484.372-.961V133.5c.19-.476.4-.942.621-1.4a26.252,26.252,0,0,1,3.235-5.158c.32-.4.646-.781.981-1.151.156-.18.321-.355.487-.53l.029-.031c.175-.181.351-.361.53-.541a26.421,26.421,0,0,1,2.87-2.474c.506-.375,1.016-.726,1.547-1.066s1.071-.657,1.622-.957a.032.032,0,0,1,.02-.009c.215-.115.426-.241.636-.371a15.872,15.872,0,0,0,1.8-1.252,16.746,16.746,0,0,0,6.339-13.145l3.871.02,3.981.021a16.733,16.733,0,0,0,6.294,13.109,13.727,13.727,0,0,0,1.111.821c.04.03.075.055.115.08.18.12.36.24.551.351s.415.25.626.365a.253.253,0,0,1,.09.045c.441.245.876.5,1.3.766.206.125.411.255.611.4.416.265.821.557,1.217.857a0,0,0,0,0,0,.005h0c.506.375,1,.776,1.477,1.187s.941.841,1.387,1.287A26.513,26.513,0,0,1,87.49,134.464Z" transform="translate(-37.535 -51.075)" fill="#f0c290" fill-rule="evenodd"/>
  <path d="M87.489,141.029c-7.5.377-16.177.673-24.978.673s-17.48-.3-24.977-.673q.176-.485.372-.963v-.005c.19-.476.4-.942.621-1.4a26.244,26.244,0,0,1,3.235-5.157c.32-.4.646-.781.981-1.151.165-.191.34-.376.516-.561h0c.175-.181.351-.361.531-.541a26.418,26.418,0,0,1,2.869-2.474c.506-.375,1.016-.726,1.547-1.067.275-.175.551-.345.831-.51.261-.155.526-.306.791-.451a.017.017,0,0,1,.02,0v-.005c.215-.121.426-.24.636-.366a15.357,15.357,0,0,0,1.787-1.262l.01.011h0a14.273,14.273,0,0,0,10.21,4.311h.04a14.3,14.3,0,0,0,10.235-4.306l0-.005a13.56,13.56,0,0,0,1.107.827c.04.029.075.054.115.079.165.111.335.216.5.322l.046.029c.205.125.416.246.626.361a.256.256,0,0,1,.062.029l.028.016c.235.131.476.265.706.405.2.12.4.241.6.365s.411.255.611.4c.416.265.821.556,1.217.857h.01c.506.38,1,.776,1.477,1.191s.941.841,1.387,1.287A26.511,26.511,0,0,1,87.489,141.029Z" transform="translate(-37.535 -57.64)" fill="#fe9f5e" fill-rule="evenodd"/>
  <path d="M85.193,77.325c0,.22,0,.44-.01.66,0,.18-.01.356-.02.536,0,.16-.015.32-.03.481,0,.115-.015.23-.025.345-.005.071-.011.135-.021.205-.01.125-.02.255-.04.38-.025.24-.05.48-.085.716,0,.06-.015.12-.025.18-.015.12-.035.241-.055.36-.025.18-.06.36-.09.536-.04.21-.08.415-.125.62a.885.885,0,0,1-.025.126c0,.035-.015.07-.02.105,0,.01,0,.02-.01.03a.273.273,0,0,1-.009.065c-.025.105-.045.21-.075.315a1,1,0,0,1-.04.166c-.021.1-.045.195-.075.29a.643.643,0,0,1-.031.135c-.01.045-.025.091-.035.13-.105.411-.226.811-.351,1.212-.061.19-.121.375-.185.566,0,.02-.015.04-.02.06l-.18.511c-.02.05-.04.1-.06.155-.061.16-.12.32-.185.481-.075.195-.155.385-.235.576-.071.17-.145.34-.221.51-.009.031-.025.055-.035.085-.085.18-.165.36-.251.536s-.175.371-.27.556c-.181.365-.376.731-.571,1.086l-.271.481a29.475,29.475,0,0,1-2.559,3.725q-.188.248-.391.48c-.185.226-.375.446-.566.661-.17.19-.34.38-.516.566q-.721.773-1.472,1.467c-.1.1-.205.191-.31.285-.17.155-.34.305-.516.451-.135.12-.275.235-.416.351-.36.3-.721.581-1.087.846-.15.115-.305.225-.461.331-.25.18-.506.351-.761.516-.14.1-.285.185-.431.271-.511.315-1.027.605-1.538.856-.125.065-.25.125-.376.185s-.255.121-.391.181q-.248.112-.5.21a1.568,1.568,0,0,1-.2.075c-.2.08-.4.155-.591.22-.245.091-.5.165-.741.235-.17.05-.345.095-.516.135a.07.07,0,0,1-.035.011c-.17.04-.34.08-.511.11a1.2,1.2,0,0,1-.135.025c-.14.025-.281.051-.421.065a5.742,5.742,0,0,1-.6.065,1.326,1.326,0,0,1-.2.015c-.16.01-.32.015-.476.015h-.015q-.232,0-.466-.015a1.027,1.027,0,0,1-.18-.015c-.14,0-.285-.02-.436-.039a.581.581,0,0,1-.095-.011c-.185-.025-.371-.055-.561-.09-.16-.025-.32-.061-.486-.1a14.457,14.457,0,0,1-2.629-.886,19.274,19.274,0,0,1-2.3-1.212c-.385-.231-.766-.481-1.152-.751-.19-.135-.38-.271-.571-.411q-.894-.654-1.767-1.422c-.16-.145-.32-.291-.481-.441s-.32-.3-.476-.441q-.586-.563-1.142-1.171-.218-.233-.436-.481c-.4-.451-.791-.916-1.162-1.4-.145-.175-.281-.355-.415-.536q-.759-1.007-1.437-2.1c-.12-.195-.241-.4-.356-.591-.14-.235-.275-.476-.411-.716a27.3,27.3,0,0,1-1.362-2.8c-.06-.14-.12-.281-.17-.42-.08-.18-.15-.366-.215-.546q-.151-.4-.285-.8c-.09-.265-.175-.536-.261-.806s-.155-.521-.225-.786c-.08-.281-.155-.566-.221-.856,0-.03-.015-.06-.02-.091q-.143-.6-.255-1.217c-.1-.541-.18-1.091-.24-1.648-.025-.175-.04-.351-.055-.526s-.035-.366-.045-.551c-.025-.336-.04-.676-.05-1.017,0-.22-.01-.44-.01-.66l3.255,6.4,5.593,2.439,6.614.6h0l4.9.446h.03l4.586.415s0,0,0,0l10.23.922Z" transform="translate(-39.829 -41.713)" fill="#4e1e30"/>
  <path d="M64.828,77.55l0,4.932v0l0,1.728v1.357l0,4.506v.005l0-.005h0l-.015-.01L45.094,80.044c0-.03-.015-.06-.02-.091q-.142-.6-.255-1.217c-.1-.541-.18-1.091-.24-1.648-.025-.175-.04-.351-.055-.526s-.035-.366-.045-.551c-.025-.336-.04-.676-.05-1.017,0-.22-.01-.44-.01-.66V68.351c0,.085,0,.17,0,.255a19.932,19.932,0,0,0,.716,4.667,20.217,20.217,0,0,0,1.277,3.44v0c1.312,2.729,3.07,4.582,4.687,4.882.1.015.2.025.305.035a17.606,17.606,0,0,0,1.958.11c2.554,0,4.822-2.053,6.249-2.884l.03-.015c.075-.045.15-.091.215-.135a.358.358,0,0,1,.06-.035,10.12,10.12,0,0,1,4.867-1.127Z" transform="translate(-39.829 -38.721)" fill="#4e1e30"/>
  <path d="M95.38,68.346l0,5.984a24.551,24.551,0,0,1-.4,4.4c-.105.571-.226,1.137-.366,1.7L89.987,87.1l-14.992,2.97h0l0,.005v-.005L74.97,77.543h.04a10.158,10.158,0,0,1,4.872,1.126.328.328,0,0,1,.055.035c.07.045.145.09.221.135a.11.11,0,0,0,.025.015c1.432.831,3.7,2.886,6.249,2.886a17.607,17.607,0,0,0,1.958-.11c.105-.01.205-.02.31-.035,1.613-.3,3.375-2.153,4.682-4.882v0a20.272,20.272,0,0,0,1.277-3.44,19.714,19.714,0,0,0,.715-4.732C95.38,68.472,95.38,68.411,95.38,68.346Z" transform="translate(-50.013 -38.72)" fill="#4e1e30"/>
  <path d="M72.5,92.636c2.758,0,4.995-.691,4.995-1.544s-2.236-1.544-4.995-1.544-4.995.691-4.995,1.544S69.74,92.636,72.5,92.636Z" transform="translate(-47.524 -45.787)" fill="#f0c290"/>
  <path d="M64.807,23.906h-.019a20.387,20.387,0,0,0-20.37,20.385V53.28s.846-5.363,3.125-7.967c2.474-2.829,1.848-7.131,7.4-7.131,3.58,0,3.78,1.322,9.844,1.322h.029c6.064,0,6.264-1.322,9.844-1.322,5.548,0,4.922,4.3,7.4,7.131,2.278,2.6,3.124,7.967,3.124,7.967V44.292A20.387,20.387,0,0,0,64.807,23.906Z" transform="translate(-39.829 -23.906)" fill="#4e1e30"/>
  <path d="M81.717,127.185l-.551.561a18.095,18.095,0,0,1-25.853-.01l-.526-.541c.261-.155.526-.306.791-.451a.017.017,0,0,1,.02-.005v-.005c.215-.12.426-.24.636-.365a15.513,15.513,0,0,0,1.787-1.262l.01.01a14.276,14.276,0,0,0,10.21,4.312h.04a14.3,14.3,0,0,0,10.235-4.307l0-.005a13.558,13.558,0,0,0,1.107.827c.04.029.075.055.115.08.18.12.366.235.551.351.205.125.416.245.626.36a.567.567,0,0,1,.09.045C81.247,126.91,81.487,127.045,81.717,127.185Z" transform="translate(-43.285 -57.64)" fill="#cc784a"/>
</svg>
