<svg xmlns="http://www.w3.org/2000/svg" width="16" height="16" viewBox="0 0 16 16">
  <g>
    <path d="M5.5,0h-4A1.5,1.5,0,0,0,0,1.5v4A1.5,1.5,0,0,0,1.5,7h4A1.5,1.5,0,0,0,7,5.5v-4A1.5,1.5,0,0,0,5.5,0Zm9,0h-4A1.5,1.5,0,0,0,9,1.5v4A1.5,1.5,0,0,0,10.5,7h4A1.5,1.5,0,0,0,16,5.5v-4A1.5,1.5,0,0,0,14.5,0ZM1.5,9h4A1.5,1.5,0,0,1,7,10.5v4A1.5,1.5,0,0,1,5.5,16h-4A1.5,1.5,0,0,1,0,14.5v-4A1.5,1.5,0,0,1,1.5,9Z" fill="currentColor" fill-rule="evenodd"/>
    <path d="M10.5,9h4A1.5,1.5,0,0,1,16,10.5v4A1.5,1.5,0,0,1,14.5,16h-4A1.5,1.5,0,0,1,9,14.5v-4A1.5,1.5,0,0,1,10.5,9Z" fill="currentColor"/>
  </g>
  <path d="M16.5,12.5h-4v4h4Zm-4-1.5h4A1.5,1.5,0,0,1,18,12.5v4A1.5,1.5,0,0,1,16.5,18h-4A1.5,1.5,0,0,1,11,16.5v-4A1.5,1.5,0,0,1,12.5,11Z" transform="translate(-2 -2)" fill="currentColor" fill-rule="evenodd"/>
  <path d="M7.5,3.5h-4v4h4Zm9,0h-4v4h4Zm-9,9h-4v4h4ZM7.5,2h-4A1.5,1.5,0,0,0,2,3.5v4A1.5,1.5,0,0,0,3.5,9h4A1.5,1.5,0,0,0,9,7.5v-4A1.5,1.5,0,0,0,7.5,2Zm9,0h-4A1.5,1.5,0,0,0,11,3.5v4A1.5,1.5,0,0,0,12.5,9h4A1.5,1.5,0,0,0,18,7.5v-4A1.5,1.5,0,0,0,16.5,2Zm-13,9h4A1.5,1.5,0,0,1,9,12.5v4A1.5,1.5,0,0,1,7.5,18h-4A1.5,1.5,0,0,1,2,16.5v-4A1.5,1.5,0,0,1,3.5,11Z" transform="translate(-2 -2)" fill="currentColor" fill-rule="evenodd"/>
</svg>
