<svg xmlns="http://www.w3.org/2000/svg" width="15.999" height="15.999" viewBox="0 0 15.999 15.999">
  <path d="M6.375,3.5A2.875,2.875,0,0,0,3.5,6.375v7.249A2.875,2.875,0,0,0,6.375,16.5h7.249A2.875,2.875,0,0,0,16.5,13.624V6.375A2.875,2.875,0,0,0,13.624,3.5ZM2,6.375A4.375,4.375,0,0,1,6.375,2h7.249A4.375,4.375,0,0,1,18,6.375v7.249A4.375,4.375,0,0,1,13.624,18H6.375A4.375,4.375,0,0,1,2,13.624Zm8.347,1.468a2.15,2.15,0,1,0,1.2.606A2.15,2.15,0,0,0,10.347,7.843Zm-2-1.113a3.65,3.65,0,1,1-1.579,1.6A3.65,3.65,0,0,1,8.351,6.73Zm5.637-1.467a.75.75,0,0,0,0,1.5h.007a.75.75,0,0,0,0-1.5Z" transform="translate(-2 -2)" fill="currentColor" fill-rule="evenodd"/>
</svg>
