<svg xmlns="http://www.w3.org/2000/svg" width="11.811" height="11.5" viewBox="0 0 11.811 11.5">
  <g transform="translate(-91 -2466)">
    <g transform="translate(97.81 2477.5) rotate(180)">
      <path d="M7.47,4.47a.75.75,0,0,1,1.061,0L14.061,10,8.53,15.53A.75.75,0,0,1,7.47,14.47L11.939,10,7.47,5.53A.75.75,0,0,1,7.47,4.47Z" transform="translate(-7.25 -4.25)" fill="currentColor" fill-rule="evenodd"/>
    </g>
    <g transform="translate(102.81 2477.5) rotate(180)">
      <path d="M7.47,4.47a.75.75,0,0,1,1.061,0L14.061,10,8.53,15.53A.75.75,0,0,1,7.47,14.47L11.939,10,7.47,5.53A.75.75,0,0,1,7.47,4.47Z" transform="translate(-7.25 -4.25)" fill="currentColor" fill-rule="evenodd"/>
    </g>
  </g>
</svg>
