<svg xmlns="http://www.w3.org/2000/svg" width="16" height="16" viewBox="0 0 16 16">
  <path d="M4.9,2.75A.75.75,0,0,1,5.65,2h8.7a.75.75,0,0,1,.75.75V7.075h.7a2.2,2.2,0,0,1,2.2,2.2V12.9a2.2,2.2,0,0,1-2.2,2.2h-.7v2.15a.75.75,0,0,1-.75.75H5.65a.75.75,0,0,1-.75-.75V15.1H4.2A2.2,2.2,0,0,1,2,12.9V9.275a2.2,2.2,0,0,1,2.2-2.2h.7Zm1.5,11.6V12.2h7.2v4.3H6.4ZM4.9,13.6H4.2a.7.7,0,0,1-.7-.7V9.275a.7.7,0,0,1,.7-.7H15.8a.7.7,0,0,1,.7.7V12.9a.7.7,0,0,1-.7.7h-.7v-2.15a.75.75,0,0,0-.75-.75H5.65a.75.75,0,0,0-.75.75ZM13.6,3.5V7.075H6.4V3.5Z" transform="translate(-2 -2)" fill="currentColor" fill-rule="evenodd"/>
</svg>
