<svg xmlns="http://www.w3.org/2000/svg" width="16" height="20" viewBox="0 0 16 20">
  <path d="M5.93,2.459a.125.125,0,0,1,.115-.134h5.41a.125.125,0,0,1,.115.134v.9c0,.009,0,.018,0,.027s0,.018,0,.027V4.3a.125.125,0,0,1-.115.134H6.045A.125.125,0,0,1,5.93,4.3Zm7.213,1.709V4.3A1.7,1.7,0,0,1,11.456,6.01H6.045A1.7,1.7,0,0,1,4.357,4.3V4.168H3.34a1,1,0,0,0-.713.3,1.075,1.075,0,0,0-.3.752v12.9a1.075,1.075,0,0,0,.3.752,1,1,0,0,0,.713.3H14.16a1,1,0,0,0,.713-.3,1.075,1.075,0,0,0,.3-.752V5.223a1.075,1.075,0,0,0-.3-.752,1,1,0,0,0-.713-.3ZM4.357,2.593V2.459A1.7,1.7,0,0,1,6.045.75h5.41a1.7,1.7,0,0,1,1.688,1.709v.134H14.16A2.57,2.57,0,0,1,16,3.369a2.651,2.651,0,0,1,.753,1.854v12.9A2.651,2.651,0,0,1,16,19.974a2.57,2.57,0,0,1-1.837.776H3.34A2.57,2.57,0,0,1,1.5,19.974,2.651,2.651,0,0,1,.75,18.12V5.223A2.651,2.651,0,0,1,1.5,3.369,2.57,2.57,0,0,1,3.34,2.593Z" transform="translate(-0.75 -0.75)" fill="currentColor" fill-rule="evenodd"/>
</svg>
