<svg xmlns="http://www.w3.org/2000/svg" width="14.55" height="16" viewBox="0 0 14.55 16">
  <path d="M8.242,4.342A2.875,2.875,0,0,1,13.15,6.375v2.15H7.4V6.375A2.875,2.875,0,0,1,8.242,4.342Zm-1.6,5.683h8.7a.7.7,0,0,1,.7.7V15.8a.7.7,0,0,1-.7.7H5.2a.7.7,0,0,1-.7-.7V10.725a.7.7,0,0,1,.7-.7ZM5.9,8.525V6.375a4.375,4.375,0,1,1,8.75,0v2.15h.7a2.2,2.2,0,0,1,2.2,2.2V15.8a2.2,2.2,0,0,1-2.2,2.2H5.2A2.2,2.2,0,0,1,3,15.8V10.725a2.2,2.2,0,0,1,2.2-2.2Z" transform="translate(-3 -2)" fill="currentColor" fill-rule="evenodd"/>
</svg>
