<svg xmlns="http://www.w3.org/2000/svg" width="16" height="16" viewBox="0 0 16 16">
  <path d="M4.361,3.5a.861.861,0,0,0-.861.861V15.639a.861.861,0,0,0,.861.861H7.583a.75.75,0,0,1,0,1.5H4.361A2.361,2.361,0,0,1,2,15.639V4.361A2.361,2.361,0,0,1,4.361,2H7.583a.75.75,0,0,1,0,1.5Zm8.331,1.942a.75.75,0,0,1,1.061,0L17.78,9.47a.749.749,0,0,1,0,1.061l-4.028,4.028A.75.75,0,0,1,12.692,13.5l2.747-2.748H7.583a.75.75,0,0,1,0-1.5h7.856L12.692,6.5A.75.75,0,0,1,12.692,5.442Z" transform="translate(-2 -2)" fill="currentColor" fill-rule="evenodd"/>
</svg>
