<svg xmlns="http://www.w3.org/2000/svg" width="19" height="22" viewBox="0 0 19 22">
  <path d="M8.125,1.676A.166.166,0,0,1,8.281,1.5h5.437a.166.166,0,0,1,.156.175V3.526a.166.166,0,0,1-.156.175H8.281a.166.166,0,0,1-.156-.175Zm7.25,1.676v.174A1.666,1.666,0,0,1,13.719,5.2H8.281A1.666,1.666,0,0,1,6.625,3.526V3.352H5.563a1.044,1.044,0,0,0-.746.317,1.12,1.12,0,0,0-.317.783V9.018A3.8,3.8,0,0,0,3,9.154v-4.7a2.621,2.621,0,0,1,.745-1.834,2.544,2.544,0,0,1,1.817-.767H6.625V1.676A1.666,1.666,0,0,1,8.281,0h5.437a1.666,1.666,0,0,1,1.656,1.676v.176h1.062a2.544,2.544,0,0,1,1.817.767A2.621,2.621,0,0,1,19,4.452V17.406a2.621,2.621,0,0,1-.745,1.834,2.544,2.544,0,0,1-1.817.767H12.509a3.79,3.79,0,0,0,1.179-1.5h2.749a1.044,1.044,0,0,0,.746-.317,1.12,1.12,0,0,0,.317-.783V4.452a1.12,1.12,0,0,0-.317-.783,1.044,1.044,0,0,0-.746-.317ZM4.831,12.531a.787.787,0,0,0-1.491,0L2.105,16.217H.786a.782.782,0,1,0,0,1.563H2.672a.785.785,0,0,0,.745-.534l.669-2,2.083,6.216a.787.787,0,0,0,1.491,0L8.9,17.78h1.319a.782.782,0,1,0,0-1.563H8.329a.785.785,0,0,0-.745.534l-.669,2Z" fill="currentColor" fill-rule="evenodd"/>
</svg>
