<svg xmlns="http://www.w3.org/2000/svg" width="82.322" height="83.242" viewBox="0 0 82.322 83.242">
  <path d="M75.122,124.414c-.081,0-.162.081-.244.081s-.162-.081-.244-.081Z" transform="translate(-33.738 -58.229)" fill="#84dbff"/>
  <path d="M95.612,133.881a20.019,20.019,0,0,1-10.963,4.031c-8.525.5-19.28.961-30.219.961s-21.695-.457-30.219-.961a20.015,20.015,0,0,1-10.921-4A12.23,12.23,0,0,1,14.4,132.29c6.74-9.013,17.052-13.479,25.5-15.672-.65,5.359,2.111,12.505,2.192,12.343,2.842-6.5,12.343-7.065,12.343-7.065s9.5.569,12.261,7.065c.081.163,2.923-6.983,2.192-12.343,8.526,2.193,18.92,6.659,25.578,15.672.105.143.216.287.327.433C95.08,133.108,95.377,133.5,95.612,133.881Z" transform="translate(-13.29 -55.63)" fill="#22cce2" fill-rule="evenodd"/>
  <path d="M80.806,107.483v.081c0,.812-.406,6.009-11.368,10.15H68.95c-10.962-4.141-11.368-9.338-11.368-10.15v-.081a14.256,14.256,0,0,1,.487-3.167c3.167,3.979,6.983,6.659,11.125,6.659s7.958-2.68,11.125-6.659A14.256,14.256,0,0,1,80.806,107.483Z" transform="translate(-28.054 -51.53)" fill="#ffd7a3"/>
  <path d="M86.609,108.957S87.177,114.8,75,119.351c0,0,9.5.568,12.261,7.065C87.421,126.578,92.862,112.449,86.609,108.957Z" transform="translate(-33.859 -53.077)" fill="#148a99"/>
  <path d="M56.082,109.067c-6.252,3.492-.812,17.621-.65,17.377,2.842-6.5,12.261-7.065,12.261-7.065C55.513,114.914,56.082,109.067,56.082,109.067Z" transform="translate(-26.554 -53.113)" fill="#148a99"/>
  <path d="M83.767,67.827A23.114,23.114,0,0,1,77.19,81.144,15.686,15.686,0,0,1,75,83.012l-1.3-4.141H59.732l-1.3,4.141c-2.6-1.949-8.039-7.389-8.12-12.5-2.274-29.151,20.057-22.98,20.057-22.98C85.391,46.472,84.9,59.707,83.767,67.827Z" transform="translate(-25.576 -32.418)" fill="#ffe1b2"/>
  <path d="M103.014,82.27a8.3,8.3,0,0,1-4.141,3.654,34.456,34.456,0,0,0,1.462-4.06v-.081q.487-1.827.975-3.654h-.081c.325-1.218.649-2.436.893-3.654a2.307,2.307,0,0,1,.974.325C104.882,75.936,104.8,79.265,103.014,82.27Z" transform="translate(-41.817 -41.582)" fill="#ffe1b2"/>
  <path d="M48.349,86.046a8.3,8.3,0,0,1-4.141-3.654c-1.868-3-1.868-6.334-.081-7.389.162-.081.244-.162.406-.162a55.288,55.288,0,0,0,2.355,7.227A39.307,39.307,0,0,0,48.349,86.046Z" transform="translate(-23.125 -41.704)" fill="#ffe1b2"/>
  <path d="M72.725,32.126c.65-7.47-11.206-6.983-11.206-6.983-17.945,2.6-19.894,19.326-19.894,19.326l2.436-2.923C40.245,49.909,46.01,64.281,46.5,65.418c3,9.988,9.663,19.163,17.377,19.163s14.373-9.175,17.377-19.163v-.081c.325-1.218.65-2.436.893-3.654h-.081c1.624-6.5,3.411-13.073,3.411-13.073C90.1,25.305,72.725,32.126,72.725,32.126Zm8.2,28.42a23.112,23.112,0,0,1-6.577,13.317,22.406,22.406,0,0,1-2.192,1.868l-1.3-4.06H56.891l-1.3,4.141A25.511,25.511,0,0,1,49.015,68.1a17.24,17.24,0,0,1-1.543-4.791C45.2,34.156,67.528,40.327,67.528,40.327,82.55,39.19,82.063,52.426,80.926,60.546Z" transform="translate(-22.735 -25.136)" fill="#324a5e"/>
  <path d="M72.725,32.126c.65-7.47-11.206-6.983-11.206-6.983-17.945,2.6-19.894,19.326-19.894,19.326l2.436-2.923C40.245,49.909,46.01,64.281,46.5,65.418c3,9.988,9.663,19.163,17.377,19.163s14.373-9.175,17.377-19.163v-.081c.325-1.218.65-2.436.893-3.654h-.081c1.624-6.5,3.411-13.073,3.411-13.073C90.1,25.305,72.725,32.126,72.725,32.126Zm8.2,28.42a23.112,23.112,0,0,1-6.577,13.317,22.406,22.406,0,0,1-2.192,1.868l-1.3-4.06H56.891l-1.3,4.141A25.511,25.511,0,0,1,49.015,68.1a17.24,17.24,0,0,1-1.543-4.791C45.2,34.156,67.528,40.327,67.528,40.327,82.55,39.19,82.063,52.426,80.926,60.546Z" transform="translate(-22.735 -25.136)" fill="#324a5e"/>
  <path d="M72.725,32.126c.65-7.47-11.206-6.983-11.206-6.983-17.945,2.6-19.894,19.326-19.894,19.326l2.436-2.923C40.245,49.909,46.01,64.281,46.5,65.418c3,9.988,9.663,19.163,17.377,19.163s14.373-9.175,17.377-19.163v-.081c.325-1.218.65-2.436.893-3.654h-.081c1.624-6.5,3.411-13.073,3.411-13.073C90.1,25.305,72.725,32.126,72.725,32.126Zm8.2,28.42a23.112,23.112,0,0,1-6.577,13.317,22.406,22.406,0,0,1-2.192,1.868l-1.3-4.06H56.891l-1.3,4.141c-2.6-1.949-8.039-7.389-8.12-12.5C45.2,34.156,67.528,40.327,67.528,40.327,82.55,39.19,82.063,52.426,80.926,60.546Z" transform="translate(-22.735 -25.136)" fill="#1f0951"/>
  <path d="M66.473,99.079a7.668,7.668,0,0,0,5.684,2.6,7.389,7.389,0,0,0,5.684-2.6Z" transform="translate(-31.017 -49.784)" fill="#fff"/>
</svg>
