<svg xmlns="http://www.w3.org/2000/svg" width="77.417" height="79.729" viewBox="0 0 77.417 79.729">
  <path d="M87.748,70.945V67.034a6.707,6.707,0,0,1,.709-3,14.273,14.273,0,0,0,.877-7.318l-.169-1.182H55.873l-25.5,41.083,24.083,7.792L70.04,83.867H88.419a3.158,3.158,0,0,0,2.627-1.406l.288-.432a3.953,3.953,0,0,0-.494-4.986l-.967-.968A7.255,7.255,0,0,1,87.748,70.945Z" transform="translate(-18.041 -38.782)" fill="#fdc"/>
  <path d="M57.972,137.29q-2,.02-4.014.02c-10.939,0-21.695-.457-30.219-.96a20,20,0,0,1-11.863-4.757c.512-5.769,9.216-16.453,11.053-18.676a2.766,2.766,0,0,1,3.121-.8l24.771,9.437a6.913,6.913,0,0,1,4.165,4.391C56.168,129.757,57.163,133.505,57.972,137.29Z" transform="translate(-11.876 -57.581)" fill="#ffd454" fill-rule="evenodd"/>
  <path d="M89.38,74.783c-3.545-2.125-14.871-1.417-15.58-2.125-4.25-4.249,1.769-20.185,4.955-25.5,26.92,8.5,26.92-14.875,2.125-13.458C53.688,22.544,32.672,40.9,45.533,71.2a2.75,2.75,0,0,0,2.192,1.65c2.978.362,9.245,1.051,9.78.512.7-.709,2.837-5.666,1.417-6.375C43.5,59.3,65.564,44.033,67.929,58.6a8.5,8.5,0,0,1-.933,5.2c-3.107,6.062-7.926,11.621-5.948,19.49.712,2.834,12.187,8.359,18.42,7.792S92.926,76.908,89.38,74.783Z" transform="translate(-21.802 -30.407)" fill="#4e1e30"/>
  <path d="M105.814,76.783a2.125,2.125,0,1,0,2.125-2.125A2.125,2.125,0,0,0,105.814,76.783Z" transform="translate(-43.188 -45.157)" fill="#4a1827"/>
  <path d="M111.48,67.575a1.417,1.417,0,0,0-1.417-1.417H102.98a1.417,1.417,0,1,0,0,2.833h7.083A1.417,1.417,0,0,0,111.48,67.575Z" transform="translate(-41.771 -42.324)" fill="#5b2c3e"/>
</svg>
