<svg xmlns="http://www.w3.org/2000/svg" width="76.562" height="83.594" viewBox="0 0 76.562 83.594">
  <path d="M89.724,28.88,79.417,84.83,86.779,86.3C102.362,74.892,109.048,28.88,89.724,28.88Z" transform="translate(-38.191 -26.033)" fill="#4e1e30"/>
  <path d="M74,27.456c-2.577-1.564-16.176-5.538-26.5,0-12.7,6.81-23.8,31.165-5.889,55.95.025.035,13.251-1.473,13.251-1.473Z" transform="translate(-22.47 -24.609)" fill="#4e1e30"/>
  <path d="M81.624,132.245c-4.291.126-8.755.2-13.25.2s-8.961-.077-13.253-.2V110.018c2.931-2.213,2.945-5.871,2.945-9.237V97.346H78.679v3.439h.08c0,3.337.009,6.963,2.865,9.182Z" transform="translate(-30.092 -48.855)" fill="#ffd7a3" fill-rule="evenodd"/>
  <path d="M82.361,146.686c-3.836.1-7.795.162-11.778.162-2.972,0-5.931-.034-8.835-.093v-5.239a33.8,33.8,0,0,0,8.834,1.149,32.111,32.111,0,0,0,11.779-2.12Z" transform="translate(-32.302 -63.255)" fill="#fe9f5e" fill-rule="evenodd"/>
  <path d="M81.624,116.444a8.108,8.108,0,0,0,1.472.263v-6.783c-2.855-2.219-2.865-5.845-2.865-9.182l0-.085V97.217L63.955,97.3l-4.417,1.472C62.483,102.088,71.5,113.683,81.624,116.444Z" transform="translate(-31.565 -48.812)" fill="#fdc88e"/>
  <path d="M85.308,60.535c0,11.791-11.726,26.5-20.613,26.5s-20.613-14.712-20.613-26.5,9.229-16.2,20.613-16.2S85.308,48.744,85.308,60.535Z" transform="translate(-26.413 -31.186)" fill="#ffe1b2"/>
  <path d="M65.358,33.3a30.209,30.209,0,0,0-5.708,1.744l-.181-.272-.827.651c-1.221.464-2.117.822-2.117.822l.344.574c-5.588,4.4-18.339,14.475-19.485,15.622-1.472,1.472,8.834,39.037,8.834,17.668,0-17.852,9.918-21.388,19.141-23.558,4.172-.982,5.4-3.436,5.889-5.889S66.83,33.3,65.358,33.3Z" transform="translate(-24.132 -27.505)" fill="#4e1e30"/>
  <path d="M84.569,40.659c2.7,9.693,8.1,14.079,13.16,15.368,2.773.706,1.564-8.006,1.564-8.006S95.367,37.96,94.876,37.714s-4.417-8.834-4.417-8.834l-8.834,7.362Z" transform="translate(-38.927 -26.033)" fill="#4e1e30"/>
  <path d="M49.775,137.858c-8.787-.127-17.2-.506-24.135-.916a20.108,20.108,0,0,1-8.062-2.2v-1.022a16.2,16.2,0,0,1,16.2-16.2h.491c5.77,0,8.581-1.575,9.96-3.815Z" transform="translate(-17.578 -54.309)" fill="#22cce2" fill-rule="evenodd"/>
  <path d="M116.322,134.742a20.115,20.115,0,0,1-8.061,2.2c-6.936.41-15.349.789-24.136.916l5.55-24.15c1.379,2.241,4.19,3.815,9.96,3.815h.491a16.2,16.2,0,0,1,16.2,16.2Z" transform="translate(-39.761 -54.309)" fill="#22cce2" fill-rule="evenodd"/>
  <path d="M100.78,68.768c2.409-.552,3.988.628,3.988,2.945,0,3.067-3.24,10.583-6.646,5.889S100.78,68.768,100.78,68.768Z" transform="translate(-44.08 -39.284)" fill="#ffe1b2"/>
</svg>
