<svg xmlns="http://www.w3.org/2000/svg" width="85.506" height="84.688" viewBox="0 0 85.506 84.688">
  <g transform="translate(0)">
    <path d="M83.434,118.6V107.055H53.759V118.6L68.6,131.784Z" transform="translate(-25.753 -50.997)" fill="#ffe1b2"/>
    <path d="M97.255,134.458a19.985,19.985,0,0,1-13.122,5.931c-8.524.5-19.28.96-30.219.96s-21.695-.457-30.219-.96a20,20,0,0,1-11.946-4.829,6.6,6.6,0,0,1,5.064-5.9l20.4-4.8a3.283,3.283,0,0,0,1.5-.811l15.879,10.1,16.523-9.639a3.282,3.282,0,0,0,.857.345l20.4,4.8A6.594,6.594,0,0,1,97.255,134.458Z" transform="translate(-11.749 -56.661)" fill="#8b63e7" fill-rule="evenodd"/>
    <path d="M53.759,107.055v12.176c18.691,6.735,29.675-10.12,29.675-10.12v-2.056Z" transform="translate(-25.753 -50.997)" fill="#f0c290"/>
    <path d="M43.868,50.178,45.3,81.784a9.892,9.892,0,0,0,3.946,7.464l6.817,5.113A9.893,9.893,0,0,0,62,96.339H68.6a9.893,9.893,0,0,0,5.935-1.978l6.817-5.113a9.892,9.892,0,0,0,3.946-7.464l1.437-31.606Z" transform="translate(-22.455 -32.038)" fill="#ffe1b2"/>
    <path d="M77.695,148.03q-2.012.019-4.039.02-1.344,0-2.683-.009l.27-3.891h6.182Z" transform="translate(-31.49 -63.362)" fill="#5b5d6e" fill-rule="evenodd"/>
    <path d="M78.076,139.2H69.832v3.1a1.843,1.843,0,0,0,1.843,1.843h4.557a1.843,1.843,0,0,0,1.843-1.843v-3.1Z" transform="translate(-31.11 -61.714)" fill="#515262"/>
    <path d="M51.054,118.648,66.123,132.21a56.876,56.876,0,0,0-9.428,6.425,2.116,2.116,0,0,1-3.276-.741l-7.08-15.575,2.24-3.359A1.648,1.648,0,0,1,51.054,118.648Z" transform="translate(-23.279 -54.721)" fill="#fff"/>
    <path d="M91.085,118.648,76.016,132.21a56.873,56.873,0,0,1,9.428,6.425,2.116,2.116,0,0,0,3.276-.741l7.08-15.575-2.24-3.359A1.647,1.647,0,0,0,91.085,118.648Z" transform="translate(-33.171 -54.721)" fill="#fff"/>
    <path d="M91.008,33.283l1.545,10.922c7.055,1.411,8.072,12.483,8.218,15.645a3.253,3.253,0,0,0,.521,1.611l2.692,4.176s-.921-6.9,3.3-11.54C107.282,54.1,108.731,26.688,91.008,33.283Z" transform="translate(-38.169 -26.065)" fill="#4e1e30"/>
    <path d="M109.589,79.15l-1.861,7.445a1.982,1.982,0,0,1-3.89-.235l-.952-7.615a3.415,3.415,0,0,1,3.389-3.838h0A3.415,3.415,0,0,1,109.589,79.15Z" transform="translate(-42.119 -40.281)" fill="#ffe1b2"/>
    <path d="M42.9,27.232,45.336,28.9C34.311,37.038,36.372,51,36.372,51c3.3,3.3,3.3,11.54,3.3,11.54l3.3-3.3s-1.272-9.525,4.946-13.189c5.77-3.4,10.819-1.649,15.971-1.649,13.807,0,17.671-5.2,17-11.54-.347-3.279-5.36-10.109-18.134-9.892C57.594,23.061,47.912,24.622,42.9,27.232Z" transform="translate(-19.906 -22.969)" fill="#66273f"/>
    <path d="M41.936,45.928a18.11,18.11,0,0,1,3.4-14.065c-11.025,8.14-8.964,22.1-8.964,22.1,3.3,3.3,3.3,11.54,3.3,11.54l3.3-3.3s-1.272-9.525,4.946-13.189c5.77-3.4,10.819-1.649,15.971-1.649a40.506,40.506,0,0,0,5.945-.408C59.195,47.319,52.927,39.264,41.936,45.928Z" transform="translate(-19.906 -25.933)" fill="#4e1e30"/>
    <path d="M39.027,79.15l1.861,7.445a1.982,1.982,0,0,0,3.89-.235l.952-7.615a3.415,3.415,0,0,0-3.388-3.838h0A3.415,3.415,0,0,0,39.027,79.15Z" transform="translate(-20.807 -40.281)" fill="#ffe1b2"/>
  </g>
</svg>
