<svg xmlns="http://www.w3.org/2000/svg" width="13.1" height="16" viewBox="0 0 13.1 16">
  <g>
    <path d="M4.094,2.644A2.2,2.2,0,0,1,5.65,2h5.075a.75.75,0,0,1,.53.22L16.33,7.295a.75.75,0,0,1,.22.53V15.8a2.2,2.2,0,0,1-2.2,2.2H5.65a2.2,2.2,0,0,1-2.2-2.2V4.2A2.2,2.2,0,0,1,4.094,2.644ZM5.65,3.5a.7.7,0,0,0-.7.7V15.8a.7.7,0,0,0,.7.7h8.7a.7.7,0,0,0,.7-.7V8.136L10.414,3.5Z" transform="translate(-3.45 -2)" fill="currentColor" fill-rule="evenodd"/>
    <path d="M10.725,2a.75.75,0,0,1,.75.75V7.075H15.8a.75.75,0,0,1,0,1.5H10.725a.75.75,0,0,1-.75-.75V2.75A.75.75,0,0,1,10.725,2Z" transform="translate(-3.45 -2)" fill="currentColor" fill-rule="evenodd"/>
    <path d="M6,12.335a1.342,1.342,0,0,1,.174-.686,1.207,1.207,0,0,1,.484-.471,1.46,1.46,0,0,1,.709-.171,1.4,1.4,0,0,1,.829.245,1.174,1.174,0,0,1,.461.668H7.929a.569.569,0,0,0-.232-.248.66.66,0,0,0-.337-.085.646.646,0,0,0-.5.2.878.878,0,0,0,0,1.09.646.646,0,0,0,.5.2A.661.661,0,0,0,7.7,13a.569.569,0,0,0,.232-.248h.728a1.174,1.174,0,0,1-.461.668,1.41,1.41,0,0,1-.829.241,1.487,1.487,0,0,1-.709-.167,1.24,1.24,0,0,1-.484-.471A1.342,1.342,0,0,1,6,12.335Z" transform="translate(-3.45 -2)" fill="currentColor"/>
    <path d="M10.047,13.667a1.452,1.452,0,0,1-.535-.093.882.882,0,0,1-.38-.274.736.736,0,0,1-.147-.438h.705a.329.329,0,0,0,.1.223.352.352,0,0,0,.232.074.383.383,0,0,0,.232-.063.218.218,0,0,0,.085-.182.206.206,0,0,0-.07-.16.52.52,0,0,0-.167-.1,2.592,2.592,0,0,0-.279-.093A3.13,3.13,0,0,1,9.4,12.4a.787.787,0,0,1-.287-.23.622.622,0,0,1-.12-.4.666.666,0,0,1,.275-.568A1.158,1.158,0,0,1,9.985,11a1.172,1.172,0,0,1,.724.208.721.721,0,0,1,.295.571h-.717a.258.258,0,0,0-.1-.2.345.345,0,0,0-.229-.074.287.287,0,0,0-.194.063.21.21,0,0,0-.074.174.217.217,0,0,0,.124.2,2.08,2.08,0,0,0,.387.152,3.547,3.547,0,0,1,.426.163.8.8,0,0,1,.287.226.588.588,0,0,1,.12.382.717.717,0,0,1-.12.4.8.8,0,0,1-.341.289A1.218,1.218,0,0,1,10.047,13.667Z" transform="translate(-3.45 -2)" fill="currentColor"/>
    <path d="M14,11.037l-.965,2.6h-.829l-.965-2.6h.705L12.621,13l.678-1.966Z" transform="translate(-3.45 -2)" fill="currentColor"/>
  </g>
</svg>
