<svg xmlns="http://www.w3.org/2000/svg" width="13.1" height="16" viewBox="0 0 13.1 16">
  <g>
    <path d="M4.094,2.644A2.2,2.2,0,0,1,5.65,2h5.075a.75.75,0,0,1,.53.22L16.33,7.295a.75.75,0,0,1,.22.53V15.8a2.2,2.2,0,0,1-2.2,2.2H5.65a2.2,2.2,0,0,1-2.2-2.2V4.2A2.2,2.2,0,0,1,4.094,2.644ZM5.65,3.5a.7.7,0,0,0-.7.7V15.8a.7.7,0,0,0,.7.7h8.7a.7.7,0,0,0,.7-.7V8.136L10.414,3.5Z" transform="translate(-3.45 -2)" fill="currentColor" fill-rule="evenodd"/>
    <path d="M10.725,2a.75.75,0,0,1,.75.75V7.075H15.8a.75.75,0,0,1,0,1.5H10.725a.75.75,0,0,1-.75-.75V2.75A.75.75,0,0,1,10.725,2Z" transform="translate(-3.45 -2)" fill="currentColor" fill-rule="evenodd"/>
    <path d="M8.113,13.919l-.658-.957-.58.957H5.983L7.018,12.33,5.96,10.795h.915l.648.943.57-.943h.892L7.961,12.37l1.067,1.549Z" transform="translate(-3.45 -2)" fill="currentColor"/>
    <path d="M10.209,13.331h1.03v.587H9.423V10.795h.786Z" transform="translate(-3.45 -2)" fill="currentColor"/>
    <path d="M12.783,13.95a1.709,1.709,0,0,1-.635-.111,1.047,1.047,0,0,1-.451-.329.89.89,0,0,1-.175-.525h.837a.4.4,0,0,0,.124.267.414.414,0,0,0,.276.089.451.451,0,0,0,.276-.076.263.263,0,0,0,.1-.218.248.248,0,0,0-.083-.191.617.617,0,0,0-.2-.125,3.054,3.054,0,0,0-.331-.111,3.7,3.7,0,0,1-.51-.187.937.937,0,0,1-.34-.276.752.752,0,0,1-.142-.476A.8.8,0,0,1,11.858,11a1.365,1.365,0,0,1,.851-.249,1.381,1.381,0,0,1,.86.249.868.868,0,0,1,.35.685h-.851a.311.311,0,0,0-.115-.236.407.407,0,0,0-.271-.089.339.339,0,0,0-.23.076.254.254,0,0,0-.087.209.261.261,0,0,0,.147.236,2.458,2.458,0,0,0,.46.182,4.191,4.191,0,0,1,.506.2.956.956,0,0,1,.34.272.711.711,0,0,1,.143.458.868.868,0,0,1-.143.485.956.956,0,0,1-.4.347A1.432,1.432,0,0,1,12.783,13.95Z" transform="translate(-3.45 -2)" fill="currentColor"/>
  </g>
</svg>
