<svg xmlns="http://www.w3.org/2000/svg" width="16" height="13.462" viewBox="0 0 16 13.462">
  <path d="M11.63,3.5a3.677,3.677,0,0,1,3.751.669A6.408,6.408,0,0,0,16.815,3.4a.75.75,0,0,1,1.165.786,5.916,5.916,0,0,1-1.31,2.525q.012.148.013.3v0a9.376,9.376,0,0,1-4.761,8.619,9.87,9.87,0,0,1-9.538-.3.75.75,0,0,1,.4-1.4,6.847,6.847,0,0,0,3.031-.574,6.8,6.8,0,0,1-2.1-2.091A6.56,6.56,0,0,1,2.742,8.04a8.906,8.906,0,0,1,.28-2.574c.084-.328.171-.595.238-.783.034-.094.062-.169.084-.221L3.369,4.4l.008-.019,0-.006v0h0l.687.3-.687-.3a.75.75,0,0,1,1.3-.126A6.3,6.3,0,0,0,7,6.269,6.216,6.216,0,0,0,9.25,6.92a3.761,3.761,0,0,1,.636-2.028A3.709,3.709,0,0,1,11.63,3.5ZM4.389,6.214a7.219,7.219,0,0,0-.148,1.759,5.062,5.062,0,0,0,.741,2.49,5.874,5.874,0,0,0,2.689,2.193.75.75,0,0,1,.117,1.3,8.386,8.386,0,0,1-2.112,1.049,7.992,7.992,0,0,0,5.534-.7,7.882,7.882,0,0,0,3.972-7.3,2.279,2.279,0,0,0-.04-.415.75.75,0,0,1,.207-.67q.112-.112.215-.231l-.165.052a.75.75,0,0,1-.787-.228,2.2,2.2,0,0,0-1.127-.7,2.171,2.171,0,0,0-1.316.08,2.209,2.209,0,0,0-1.037.831,2.261,2.261,0,0,0-.382,1.29v.01h0v.667a.75.75,0,0,1-.73.75,7.71,7.71,0,0,1-3.7-.838A7.778,7.778,0,0,1,4.389,6.214Z" transform="translate(-2 -3.25)" fill="currentColor" fill-rule="evenodd"/>
</svg>