<svg xmlns="http://www.w3.org/2000/svg" width="17.143" height="20" viewBox="0 0 17.143 20">
  <path d="M4.95,1.675A.164.164,0,0,1,5.1,1.5h5.251a.164.164,0,0,1,.151.175v1.85a.164.164,0,0,1-.151.175H5.1a.164.164,0,0,1-.151-.175Zm7,1.676v.174a1.639,1.639,0,0,1-1.6,1.675H5.1A1.639,1.639,0,0,1,3.5,3.525V3.351H2.475a.992.992,0,0,0-.72.317,1.141,1.141,0,0,0-.306.783V17.4a1.141,1.141,0,0,0,.306.783.992.992,0,0,0,.72.317h10.5a.992.992,0,0,0,.72-.317A1.141,1.141,0,0,0,14,17.4V12.488l1.449-1.421V17.4a2.669,2.669,0,0,1-.72,1.833A2.416,2.416,0,0,1,12.977,20H2.475A2.416,2.416,0,0,1,.72,19.233,2.669,2.669,0,0,1,0,17.4V4.451A2.669,2.669,0,0,1,.72,2.618a2.416,2.416,0,0,1,1.755-.767H3.5V1.675A1.639,1.639,0,0,1,5.1,0h5.251a1.639,1.639,0,0,1,1.6,1.675v.176h1.026a2.416,2.416,0,0,1,1.755.767,2.6,2.6,0,0,1,.441.635,2.933,2.933,0,0,0-.838.577l-.363.356a1.123,1.123,0,0,0-.276-.518.992.992,0,0,0-.72-.317Zm4.966,1.862a.743.743,0,0,1,0,1.066L8.3,14.733a.435.435,0,0,1-.037.038.766.766,0,0,1-.435.213.789.789,0,0,1-.111.008.771.771,0,0,1-.543-.221l-.028-.028-.009-.01L4.089,11.741a.743.743,0,0,1,0-1.066.778.778,0,0,1,1.087,0l2.545,2.5,8.111-7.958A.778.778,0,0,1,16.918,5.213Z" fill="currentColor" fill-rule="evenodd"/>
</svg>
