<svg xmlns="http://www.w3.org/2000/svg" width="19" height="22" viewBox="0 0 19 22">
  <path d="M8.125,1.676A.166.166,0,0,1,8.281,1.5h5.437a.166.166,0,0,1,.156.175V3.526a.166.166,0,0,1-.156.175H8.281a.166.166,0,0,1-.156-.175Zm7.25,1.676v.174A1.666,1.666,0,0,1,13.719,5.2H8.281A1.666,1.666,0,0,1,6.625,3.526V3.352H5.563a1.044,1.044,0,0,0-.746.317,1.12,1.12,0,0,0-.317.783V9.027a3.807,3.807,0,0,0-1.5.53V4.452a2.621,2.621,0,0,1,.745-1.834,2.544,2.544,0,0,1,1.817-.767H6.625V1.676A1.666,1.666,0,0,1,8.281,0h5.437a1.666,1.666,0,0,1,1.656,1.676v.176h1.062a2.544,2.544,0,0,1,1.817.767A2.621,2.621,0,0,1,19,4.452V17.406a2.621,2.621,0,0,1-.745,1.834,2.544,2.544,0,0,1-1.817.767H11.544a3.847,3.847,0,0,0,1.149-1.5h3.745a1.044,1.044,0,0,0,.746-.317,1.12,1.12,0,0,0,.317-.784V4.452a1.12,1.12,0,0,0-.317-.783,1.044,1.044,0,0,0-.746-.317ZM5,12a.834.834,0,0,1,.833.834v3.335H9.167a.834.834,0,0,1,0,1.667H5.834v3.335a.833.833,0,1,1-1.667,0V17.832H.833a.834.834,0,0,1,0-1.667H4.167V12.83A.834.834,0,0,1,5,12Z" fill="currentColor" fill-rule="evenodd"/>
</svg>
