<svg xmlns="http://www.w3.org/2000/svg" width="16" height="16" viewBox="0 0 16 16">
  <g>
    <path d="M2.309,6.772A2.1,2.1,0,0,0,3.125,9.7l.174.1c0,.069,0,.139-.005.205s0,.136.005.205l-.174.1a2.1,2.1,0,0,0-.816,2.928l.984,1.616a2.132,2.132,0,0,0,2.848.732l.158-.087c.2.128.4.247.612.357v.03A2.114,2.114,0,0,0,9.016,18h1.968a2.114,2.114,0,0,0,2.1-2.124v-.03c.21-.11.415-.229.612-.357l.158.087a2.132,2.132,0,0,0,2.848-.732l.984-1.616a2.1,2.1,0,0,0-.816-2.928l-.174-.1c0-.069,0-.139.005-.205s0-.136-.005-.205l.174-.1a2.1,2.1,0,0,0,.816-2.928l-.984-1.616a2.133,2.133,0,0,0-2.848-.732l-.158.087c-.2-.128-.4-.247-.612-.357v-.03A2.114,2.114,0,0,0,10.984,2H9.016a2.114,2.114,0,0,0-2.1,2.124v.03c-.21.11-.415.229-.612.357l-.158-.087a2.133,2.133,0,0,0-2.848.732Zm4.155-.144L5.29,5.984a.359.359,0,0,0-.48.1L3.826,7.7a.322.322,0,0,0,.151.443l1.241.679a4.8,4.8,0,0,0,0,2.363l-1.241.679a.322.322,0,0,0-.151.443l.984,1.616a.359.359,0,0,0,.48.1l1.174-.644a4.945,4.945,0,0,0,2.224,1.294v1.21a.337.337,0,0,0,.328.346h1.968a.337.337,0,0,0,.328-.346v-1.21a4.945,4.945,0,0,0,2.224-1.294l1.174.644a.359.359,0,0,0,.48-.1l.984-1.616a.322.322,0,0,0-.151-.443l-1.241-.679a4.8,4.8,0,0,0,0-2.363l1.241-.679a.322.322,0,0,0,.151-.443L15.19,6.081a.359.359,0,0,0-.48-.1l-1.174.644a4.935,4.935,0,0,0-2.224-1.293V4.124a.337.337,0,0,0-.328-.346H9.016a.337.337,0,0,0-.328.346V5.334A4.936,4.936,0,0,0,6.464,6.628ZM10,12.667A2.667,2.667,0,1,0,7.333,10,2.665,2.665,0,0,0,10,12.667ZM11,10a1,1,0,1,1-1-1A1,1,0,0,1,11,10Z" transform="translate(-2 -2)" fill="currentColor" fill-rule="evenodd"/>
  </g>
</svg>
